<svg version="1.1" id="Layer_1" xmlns="http://www.w3.org/2000/svg" xmlns:xlink="http://www.w3.org/1999/xlink" x="0px" y="0px"
	 width="100%" viewBox="0 0 1280 853" enable-background="new 0 0 1280 853" xml:space="preserve">
<path fill="#000000" opacity="1.000000" stroke="none" 
	d="
M284.968689,365.914795 
	C272.096344,369.898163 259.215454,373.854187 246.355331,377.876648 
	C240.114990,379.828491 238.508804,382.727173 240.179871,389.101685 
	C241.994370,396.023499 243.929077,402.914215 245.856232,409.805939 
	C248.322220,418.624542 248.341797,418.611023 257.559082,418.901489 
	C258.382751,418.927429 259.218079,419.080109 260.017792,419.289368 
	C265.130096,420.627014 268.177551,424.455017 268.672058,430.208954 
	C269.140686,435.661926 266.358063,439.281281 261.522186,440.923889 
	C257.342621,442.343506 256.779755,444.384033 258.126709,448.307678 
	C261.582581,458.374420 264.668549,468.568054 267.904510,478.710327 
	C270.336884,486.334015 272.773010,487.643036 280.499634,485.309875 
	C305.346893,477.806946 330.172913,470.233582 355.029053,462.760406 
	C386.737213,453.227081 418.473877,443.788605 450.180878,434.251434 
	C456.209290,432.438141 457.192474,430.488251 455.481110,424.251312 
	C453.809479,418.159088 451.942078,412.120758 450.251221,406.033600 
	C447.621643,396.566681 447.654175,396.557678 437.987762,396.146606 
	C431.705200,395.879425 427.291992,392.035309 426.294159,385.960907 
	C425.354034,380.237793 427.400452,376.673981 432.808716,374.615814 
	C440.242157,371.786835 440.899567,370.514435 438.515289,362.719116 
	C435.546112,353.011536 432.390625,343.360382 429.478210,333.636169 
	C427.103485,325.707214 424.319458,324.086792 416.270630,326.502319 
	C372.758789,339.560577 329.251129,352.632874 284.968689,365.914795 
M470.607056,367.980896 
	C470.607056,395.236725 470.607056,422.492523 470.607056,450.151398 
	C474.907074,450.151398 478.869781,450.227234 482.828674,450.136780 
	C493.465240,449.893829 504.139587,450.050842 514.725037,449.165649 
	C526.029419,448.220306 534.029785,441.137604 535.863770,431.074188 
	C537.634949,421.355194 535.972900,410.648468 525.097534,404.998016 
	C524.503235,404.689209 523.811707,404.567596 523.214844,404.374786 
	C526.178650,401.239685 528.776611,399.257050 530.381042,396.660522 
	C536.956177,386.019531 533.829651,365.857117 512.456055,364.127808 
	C499.556335,363.084106 486.506531,363.932220 473.524933,363.830597 
	C471.056244,363.811310 470.205811,364.774780 470.607056,367.980896 
M801.027405,363.805817 
	C784.289612,363.805817 767.551758,363.805817 750.821533,363.805817 
	C750.821533,393.005157 750.821533,421.422333 750.821533,450.005249 
	C770.105103,450.005249 789.182800,450.005249 808.110840,450.005249 
	C808.110840,446.816284 808.110840,443.893097 808.110840,440.519012 
	C805.630127,440.519012 803.510437,440.516968 801.390747,440.519379 
	C791.233826,440.530975 781.074890,440.646820 770.922119,440.446930 
	C769.370239,440.416382 766.546082,438.979004 766.512085,438.106506 
	C766.178101,429.535034 766.310486,420.945435 766.310486,411.997681 
	C778.355957,411.997681 789.616028,411.997681 800.849060,411.997681 
	C800.849060,408.385315 800.849060,405.180359 800.849060,401.741394 
	C789.287231,401.741394 778.171753,401.741394 766.658997,401.741394 
	C766.658997,392.481934 766.658997,383.465027 766.658997,374.082703 
	C779.586426,374.082703 792.173950,374.082703 805.094421,374.082703 
	C805.222778,371.456787 805.177673,369.151123 805.484680,366.893372 
	C805.899109,363.845215 804.183411,363.583435 801.027405,363.805817 
M739.526306,396.079956 
	C741.105591,394.304657 742.684875,392.529358 745.154785,389.752869 
	C739.354553,389.752869 734.892944,389.869232 730.440979,389.712128 
	C727.454407,389.606720 725.294678,390.316559 723.239807,392.836761 
	C717.549500,399.815460 711.458191,406.467163 704.575073,414.334229 
	C704.575073,396.739471 704.575073,380.551819 704.575073,364.222595 
	C698.802795,364.222595 693.618896,364.222595 688.448303,364.222595 
	C688.448303,393.017517 688.448303,421.399902 688.448303,449.827881 
	C693.993225,449.827881 699.208313,449.827881 705.039673,449.827881 
	C705.039673,441.086761 705.039673,432.726349 705.039673,424.365906 
	C705.776123,423.863037 706.512573,423.360168 707.248962,422.857300 
	C708.097778,424.470795 708.701843,426.285828 709.836853,427.663574 
	C715.333313,434.335907 720.925964,440.931244 726.604187,447.449585 
	C727.611816,448.606262 729.149414,449.967010 730.505066,450.038177 
	C736.068359,450.330200 741.655823,450.160217 748.191284,450.160217 
	C742.939758,444.016815 738.401062,438.749390 733.909912,433.441681 
	C729.444580,428.164520 725.027039,422.846863 720.503967,417.445923 
	C726.909729,410.235504 732.972534,403.411163 739.526306,396.079956 
M547.987610,398.487457 
	C538.529053,408.750946 536.651428,420.686920 541.990662,433.148651 
	C548.672791,448.744781 568.449890,455.587036 586.397827,449.403503 
	C608.333862,441.845947 614.657776,414.243561 598.213074,397.832520 
	C585.938904,385.583466 562.735046,385.656067 547.987610,398.487457 
M623.382996,394.968597 
	C612.054260,403.693756 607.794128,416.960541 611.663086,429.934753 
	C617.494751,449.490509 640.425354,454.945038 655.352783,450.467407 
	C668.340698,446.571472 676.737732,438.128906 678.536255,424.571930 
	C680.234131,411.773346 675.498108,400.988159 664.291138,394.342407 
	C651.087524,386.512634 637.375671,386.839447 623.382996,394.968597 
M829.279297,403.041290 
	C833.210449,402.435059 837.158508,401.235046 841.069275,401.346191 
	C849.200317,401.577301 852.702454,405.947723 851.499817,413.954773 
	C849.132141,413.954773 846.615295,413.595337 844.239136,414.020996 
	C836.609192,415.387695 828.708679,416.171265 821.520081,418.825317 
	C813.714417,421.707184 810.625000,429.077484 811.859009,437.153107 
	C813.035522,444.852386 818.257141,449.715118 826.539001,451.302216 
	C836.023132,453.119812 844.674805,451.290985 852.360229,445.660126 
	C856.884460,450.923187 862.589722,452.447998 868.727112,449.904144 
	C870.184692,449.300049 871.985840,447.552734 872.105042,446.197327 
	C872.249817,444.550323 870.842285,442.730530 869.993408,441.042236 
	C869.048035,439.161957 867.186035,437.383270 867.095703,435.494690 
	C866.713867,427.511932 866.934448,419.502686 866.758972,411.507019 
	C866.586975,403.665833 863.641785,397.011108 856.577942,393.207855 
	C845.473328,387.229034 826.375977,390.108948 816.480652,398.934143 
	C817.898438,401.566406 819.344666,404.251404 820.775146,406.907227 
	C823.713135,405.539154 826.115723,404.420410 829.279297,403.041290 
M982.213562,401.246490 
	C977.662659,393.999146 970.614319,391.168640 962.553345,390.118011 
	C947.316711,388.132111 933.636597,396.401337 929.205322,410.283722 
	C924.361145,425.459656 929.881592,441.073090 943.663330,447.757355 
	C956.288635,453.880737 969.373962,453.327820 982.184387,447.170135 
	C986.732239,444.984070 985.231873,442.442871 983.777283,439.158600 
	C982.137756,435.456635 980.379639,435.917053 977.289490,437.466278 
	C967.821228,442.212891 958.210327,443.194244 948.984131,436.727264 
	C945.218201,434.087585 943.601990,430.334839 943.982300,425.154846 
	C958.345459,425.154846 972.382935,425.154846 986.468384,425.154846 
	C987.155273,416.691315 986.581421,408.995117 982.213562,401.246490 
M891.217590,408.321655 
	C890.897217,403.276398 894.172119,401.099915 898.302673,401.298737 
	C904.573181,401.600586 910.794861,402.916229 917.037292,403.801208 
	C918.195190,403.568054 918.933289,401.734650 920.006958,400.125122 
	C922.030762,397.091370 921.140442,395.116547 917.938660,394.083344 
	C913.845642,392.762543 909.746765,391.276855 905.531738,390.555237 
	C897.008057,389.096039 888.870361,390.296356 882.073059,396.155304 
	C872.855103,404.100708 875.096191,417.875549 886.297546,422.419128 
	C889.061340,423.540222 891.984497,424.270630 894.838928,425.165924 
	C898.794006,426.406433 902.884949,427.324982 906.677673,428.943756 
	C911.379578,430.950653 911.822754,436.399292 907.473938,439.115753 
	C905.349426,440.442780 902.445129,441.486176 900.048218,441.227417 
	C893.418579,440.511627 886.870178,439.043427 879.562256,437.743256 
	C878.439209,439.253143 876.595642,441.731628 874.792419,444.155853 
	C883.958740,453.881287 909.342041,454.752747 918.529358,445.913300 
	C928.149597,436.657318 925.568848,422.979095 913.166504,418.156708 
	C909.463135,416.716705 905.400391,416.183533 901.732788,414.674469 
	C898.169067,413.208191 894.901123,411.023071 891.217590,408.321655 
z"/>
<path fill="#F0F0F0" opacity="1.000000" stroke="none" 
	d="
M285.355347,365.807556 
	C329.251129,352.632874 372.758789,339.560577 416.270630,326.502319 
	C424.319458,324.086792 427.103485,325.707214 429.478210,333.636169 
	C432.390625,343.360382 435.546112,353.011536 438.515289,362.719116 
	C440.899567,370.514435 440.242157,371.786835 432.808716,374.615814 
	C427.400452,376.673981 425.354034,380.237793 426.294159,385.960907 
	C427.291992,392.035309 431.705200,395.879425 437.987762,396.146606 
	C447.654175,396.557678 447.621643,396.566681 450.251221,406.033600 
	C451.942078,412.120758 453.809479,418.159088 455.481110,424.251312 
	C457.192474,430.488251 456.209290,432.438141 450.180878,434.251434 
	C418.473877,443.788605 386.737213,453.227081 355.029053,462.760406 
	C330.172913,470.233582 305.346893,477.806946 280.499634,485.309875 
	C272.773010,487.643036 270.336884,486.334015 267.904510,478.710327 
	C264.668549,468.568054 261.582581,458.374420 258.126709,448.307678 
	C256.779755,444.384033 257.342621,442.343506 261.522186,440.923889 
	C266.358063,439.281281 269.140686,435.661926 268.672058,430.208954 
	C268.177551,424.455017 265.130096,420.627014 260.017792,419.289368 
	C259.218079,419.080109 258.382751,418.927429 257.559082,418.901489 
	C248.341797,418.611023 248.322220,418.624542 245.856232,409.805939 
	C243.929077,402.914215 241.994370,396.023499 240.179871,389.101685 
	C238.508804,382.727173 240.114990,379.828491 246.355331,377.876648 
	C259.215454,373.854187 272.096344,369.898163 285.355347,365.807556 
M304.674438,450.999695 
	C305.407257,451.444153 306.140076,451.888611 306.972321,453.024719 
	C308.336914,456.348633 309.701508,459.672546 311.006470,463.588867 
	C311.679352,463.748108 312.352234,463.907349 313.785309,464.047577 
	C327.476562,459.927460 341.167816,455.807343 355.328400,451.846863 
	C355.875885,451.537994 356.423370,451.229126 357.708496,450.992188 
	C359.801147,450.232025 361.893799,449.471893 364.557220,448.804230 
	C365.034973,448.527557 365.512726,448.250885 366.771698,448.044830 
	C369.506927,447.198486 372.242126,446.352173 375.530365,445.663422 
	C376.011292,445.417389 376.492218,445.171356 377.732971,444.931152 
	C382.152191,443.552246 386.571442,442.173309 391.628357,440.891479 
	C392.383820,440.540070 393.139252,440.188660 394.614807,439.898590 
	C410.811188,435.117004 427.007568,430.335419 443.635681,425.426361 
	C442.343872,421.083160 440.737183,417.349182 440.198547,413.467010 
	C439.450134,408.072662 437.019928,405.875305 431.472595,405.164917 
	C422.844177,404.059906 416.549500,397.148956 414.905640,388.669922 
	C413.107910,379.397217 416.075562,372.642120 424.012695,367.217041 
	C425.079224,366.488037 426.253296,364.488190 425.977539,363.448059 
	C423.646820,354.657410 420.990601,345.953094 418.372650,337.019653 
	C397.293701,343.242126 376.747650,349.320648 356.193207,355.370728 
	C339.299866,360.343201 322.396637,365.281921 304.899323,370.090790 
	C304.243408,370.453125 303.587494,370.815460 302.355133,371.611389 
	C301.884003,371.667236 301.412842,371.723114 300.659943,371.382874 
	C300.085205,371.723846 299.510498,372.064789 298.327576,372.818939 
	C297.149689,373.079224 295.971771,373.339478 294.078400,373.290619 
	C292.362976,373.948975 290.647552,374.607330 288.385559,375.685547 
	C287.504883,375.932770 286.624176,376.179993 284.946106,376.224945 
	C281.678101,377.134338 283.392456,379.104065 283.935486,380.860809 
	C285.002106,384.311432 287.462769,387.755890 283.351074,391.676849 
	C279.814911,392.752075 277.866455,391.405212 277.727753,387.141541 
	C277.334473,386.407318 276.941223,385.673126 276.134949,384.351685 
	C275.761993,383.221466 275.389038,382.091278 275.037170,380.417511 
	C274.335144,380.361115 273.633118,380.304749 272.241547,380.701782 
	C265.449127,382.699799 258.656708,384.697784 251.391586,386.834808 
	C253.374023,393.269440 255.258804,399.079681 256.934845,404.949493 
	C257.851715,408.160645 259.513794,409.837433 263.040741,410.357117 
	C271.001373,411.530151 276.366821,416.052460 278.319336,424.058990 
	C280.374878,432.487885 279.657166,440.200928 272.384399,446.220184 
	C271.431519,447.008789 270.368042,448.776001 270.630066,449.745605 
	C272.868286,458.028320 275.400787,466.231506 277.997650,474.971405 
	C286.330444,472.390533 293.999176,470.015381 301.823334,467.592041 
	C300.657043,463.607941 299.837769,460.234650 298.671051,456.986145 
	C297.515198,453.768158 298.378967,451.875122 302.272949,451.159790 
	C302.855011,451.103821 303.437073,451.047852 304.674438,450.999695 
z"/>
<path fill="#F7F7F7" opacity="1.000000" stroke="none" 
	d="
M470.616241,367.538239 
	C470.205811,364.774780 471.056244,363.811310 473.524933,363.830597 
	C486.506531,363.932220 499.556335,363.084106 512.456055,364.127808 
	C533.829651,365.857117 536.956177,386.019531 530.381042,396.660522 
	C528.776611,399.257050 526.178650,401.239685 523.214844,404.374786 
	C523.811707,404.567596 524.503235,404.689209 525.097534,404.998016 
	C535.972900,410.648468 537.634949,421.355194 535.863770,431.074188 
	C534.029785,441.137604 526.029419,448.220306 514.725037,449.165649 
	C504.139587,450.050842 493.465240,449.893829 482.828674,450.136780 
	C478.869781,450.227234 474.907074,450.151398 470.607056,450.151398 
	C470.607056,422.492523 470.607056,395.236725 470.616241,367.538239 
M490.858490,411.234528 
	C489.895172,412.056244 488.122375,412.852783 488.095917,413.703644 
	C487.873413,420.859467 487.891266,428.027222 488.071747,435.185455 
	C488.094482,436.088104 489.522400,437.755646 490.224701,437.716888 
	C497.155548,437.334564 504.243866,437.415405 510.941071,435.866760 
	C517.516174,434.346344 519.647583,429.656769 519.069275,422.333069 
	C518.615601,416.588287 515.292542,412.896698 508.720337,412.058289 
	C503.134705,411.345764 497.441620,411.475372 490.858490,411.234528 
M496.530090,399.914337 
	C501.502441,399.048401 506.776733,398.940826 511.366180,397.113312 
	C516.433289,395.095551 517.502625,389.901886 516.696411,384.845490 
	C515.913025,379.932648 512.646118,376.699188 507.715302,376.154449 
	C501.368317,375.453247 494.948761,375.408447 488.037476,375.054108 
	C488.037476,379.828522 488.037445,383.759338 488.037445,387.690155 
	C488.037445,391.602783 488.037476,395.515411 488.037476,399.904236 
	C490.999817,399.904236 493.286041,399.904236 496.530090,399.914337 
z"/>
<path fill="#F7F7F7" opacity="1.000000" stroke="none" 
	d="
M801.471436,363.805542 
	C804.183411,363.583435 805.899109,363.845215 805.484680,366.893372 
	C805.177673,369.151123 805.222778,371.456787 805.094421,374.082703 
	C792.173950,374.082703 779.586426,374.082703 766.658997,374.082703 
	C766.658997,383.465027 766.658997,392.481934 766.658997,401.741394 
	C778.171753,401.741394 789.287231,401.741394 800.849060,401.741394 
	C800.849060,405.180359 800.849060,408.385315 800.849060,411.997681 
	C789.616028,411.997681 778.355957,411.997681 766.310486,411.997681 
	C766.310486,420.945435 766.178101,429.535034 766.512085,438.106506 
	C766.546082,438.979004 769.370239,440.416382 770.922119,440.446930 
	C781.074890,440.646820 791.233826,440.530975 801.390747,440.519379 
	C803.510437,440.516968 805.630127,440.519012 808.110840,440.519012 
	C808.110840,443.893097 808.110840,446.816284 808.110840,450.005249 
	C789.182800,450.005249 770.105103,450.005249 750.821533,450.005249 
	C750.821533,421.422333 750.821533,393.005157 750.821533,363.805817 
	C767.551758,363.805817 784.289612,363.805817 801.471436,363.805542 
z"/>
<path fill="#F4F4F4" opacity="1.000000" stroke="none" 
	d="
M739.280823,396.333374 
	C732.972534,403.411163 726.909729,410.235504 720.503967,417.445923 
	C725.027039,422.846863 729.444580,428.164520 733.909912,433.441681 
	C738.401062,438.749390 742.939758,444.016815 748.191284,450.160217 
	C741.655823,450.160217 736.068359,450.330200 730.505066,450.038177 
	C729.149414,449.967010 727.611816,448.606262 726.604187,447.449585 
	C720.925964,440.931244 715.333313,434.335907 709.836853,427.663574 
	C708.701843,426.285828 708.097778,424.470795 707.248962,422.857300 
	C706.512573,423.360168 705.776123,423.863037 705.039673,424.365906 
	C705.039673,432.726349 705.039673,441.086761 705.039673,449.827881 
	C699.208313,449.827881 693.993225,449.827881 688.448303,449.827881 
	C688.448303,421.399902 688.448303,393.017517 688.448303,364.222595 
	C693.618896,364.222595 698.802795,364.222595 704.575073,364.222595 
	C704.575073,380.551819 704.575073,396.739471 704.575073,414.334229 
	C711.458191,406.467163 717.549500,399.815460 723.239807,392.836761 
	C725.294678,390.316559 727.454407,389.606720 730.440979,389.712128 
	C734.892944,389.869232 739.354553,389.752869 745.154785,389.752869 
	C742.684875,392.529358 741.105591,394.304657 739.280823,396.333374 
z"/>
<path fill="#F4F4F4" opacity="1.000000" stroke="none" 
	d="
M548.236694,398.237793 
	C562.735046,385.656067 585.938904,385.583466 598.213074,397.832520 
	C614.657776,414.243561 608.333862,441.845947 586.397827,449.403503 
	C568.449890,455.587036 548.672791,448.744781 541.990662,433.148651 
	C536.651428,420.686920 538.529053,408.750946 548.236694,398.237793 
M563.170044,436.489258 
	C567.604126,437.419617 572.222351,439.642731 576.438477,439.042297 
	C590.088501,437.098328 595.468872,418.503632 586.164795,406.845276 
	C579.450562,398.432068 564.715393,399.299805 559.170776,408.434875 
	C554.048096,416.874817 555.532898,428.705841 563.170044,436.489258 
z"/>
<path fill="#F4F4F4" opacity="1.000000" stroke="none" 
	d="
M623.681885,394.769653 
	C637.375671,386.839447 651.087524,386.512634 664.291138,394.342407 
	C675.498108,400.988159 680.234131,411.773346 678.536255,424.571930 
	C676.737732,438.128906 668.340698,446.571472 655.352783,450.467407 
	C640.425354,454.945038 617.494751,449.490509 611.663086,429.934753 
	C607.794128,416.960541 612.054260,403.693756 623.681885,394.769653 
M661.072449,414.733490 
	C657.733765,404.676208 651.533142,400.104279 642.439331,400.994629 
	C631.251343,402.089996 624.675415,413.208008 627.731812,425.860870 
	C629.900452,434.838959 636.447632,440.051239 645.273315,439.825684 
	C653.714844,439.609985 659.995239,434.001068 661.348816,424.978394 
	C661.810181,421.903015 661.324219,418.685547 661.072449,414.733490 
z"/>
<path fill="#F0F0F0" opacity="1.000000" stroke="none" 
	d="
M828.898804,403.171509 
	C826.115723,404.420410 823.713135,405.539154 820.775146,406.907227 
	C819.344666,404.251404 817.898438,401.566406 816.480652,398.934143 
	C826.375977,390.108948 845.473328,387.229034 856.577942,393.207855 
	C863.641785,397.011108 866.586975,403.665833 866.758972,411.507019 
	C866.934448,419.502686 866.713867,427.511932 867.095703,435.494690 
	C867.186035,437.383270 869.048035,439.161957 869.993408,441.042236 
	C870.842285,442.730530 872.249817,444.550323 872.105042,446.197327 
	C871.985840,447.552734 870.184692,449.300049 868.727112,449.904144 
	C862.589722,452.447998 856.884460,450.923187 852.360229,445.660126 
	C844.674805,451.290985 836.023132,453.119812 826.539001,451.302216 
	C818.257141,449.715118 813.035522,444.852386 811.859009,437.153107 
	C810.625000,429.077484 813.714417,421.707184 821.520081,418.825317 
	C828.708679,416.171265 836.609192,415.387695 844.239136,414.020996 
	C846.615295,413.595337 849.132141,413.954773 851.499817,413.954773 
	C852.702454,405.947723 849.200317,401.577301 841.069275,401.346191 
	C837.158508,401.235046 833.210449,402.435059 828.898804,403.171509 
M832.398193,425.646149 
	C828.998718,427.210358 826.121399,429.575287 826.934753,433.544159 
	C827.432739,435.974304 829.134399,439.144379 831.171509,440.084869 
	C836.941467,442.748810 842.741577,441.738220 847.978210,437.885101 
	C853.081604,434.130035 852.695129,429.019318 852.089661,422.706024 
	C845.448059,423.611542 839.278076,424.452759 832.398193,425.646149 
z"/>
<path fill="#F2F2F1" opacity="1.000000" stroke="none" 
	d="
M982.382812,401.565430 
	C986.581421,408.995117 987.155273,416.691315 986.468384,425.154846 
	C972.382935,425.154846 958.345459,425.154846 943.982300,425.154846 
	C943.601990,430.334839 945.218201,434.087585 948.984131,436.727264 
	C958.210327,443.194244 967.821228,442.212891 977.289490,437.466278 
	C980.379639,435.917053 982.137756,435.456635 983.777283,439.158600 
	C985.231873,442.442871 986.732239,444.984070 982.184387,447.170135 
	C969.373962,453.327820 956.288635,453.880737 943.663330,447.757355 
	C929.881592,441.073090 924.361145,425.459656 929.205322,410.283722 
	C933.636597,396.401337 947.316711,388.132111 962.553345,390.118011 
	C970.614319,391.168640 977.662659,393.999146 982.382812,401.565430 
M957.559082,400.775452 
	C948.051392,401.658325 944.211060,405.651428 943.610535,415.528931 
	C953.156799,415.528931 962.686462,415.528931 972.217590,415.528931 
	C972.159424,406.067749 967.577576,401.254608 957.559082,400.775452 
z"/>
<path fill="#F0F0F0" opacity="1.000000" stroke="none" 
	d="
M891.360474,408.737610 
	C894.901123,411.023071 898.169067,413.208191 901.732788,414.674469 
	C905.400391,416.183533 909.463135,416.716705 913.166504,418.156708 
	C925.568848,422.979095 928.149597,436.657318 918.529358,445.913300 
	C909.342041,454.752747 883.958740,453.881287 874.792419,444.155853 
	C876.595642,441.731628 878.439209,439.253143 879.562256,437.743256 
	C886.870178,439.043427 893.418579,440.511627 900.048218,441.227417 
	C902.445129,441.486176 905.349426,440.442780 907.473938,439.115753 
	C911.822754,436.399292 911.379578,430.950653 906.677673,428.943756 
	C902.884949,427.324982 898.794006,426.406433 894.838928,425.165924 
	C891.984497,424.270630 889.061340,423.540222 886.297546,422.419128 
	C875.096191,417.875549 872.855103,404.100708 882.073059,396.155304 
	C888.870361,390.296356 897.008057,389.096039 905.531738,390.555237 
	C909.746765,391.276855 913.845642,392.762543 917.938660,394.083344 
	C921.140442,395.116547 922.030762,397.091370 920.006958,400.125122 
	C918.933289,401.734650 918.195190,403.568054 917.037292,403.801208 
	C910.794861,402.916229 904.573181,401.600586 898.302673,401.298737 
	C894.172119,401.099915 890.897217,403.276398 891.360474,408.737610 
z"/>
<path fill="#040404" opacity="1.000000" stroke="none" 
	d="
M305.497772,370.235596 
	C322.396637,365.281921 339.299866,360.343201 356.193207,355.370728 
	C376.747650,349.320648 397.293701,343.242126 418.372650,337.019653 
	C420.990601,345.953094 423.646820,354.657410 425.977539,363.448059 
	C426.253296,364.488190 425.079224,366.488037 424.012695,367.217041 
	C416.075562,372.642120 413.107910,379.397217 414.905640,388.669922 
	C416.549500,397.148956 422.844177,404.059906 431.472595,405.164917 
	C437.019928,405.875305 439.450134,408.072662 440.198547,413.467010 
	C440.737183,417.349182 442.343872,421.083160 443.635681,425.426361 
	C427.007568,430.335419 410.811188,435.117004 393.919678,439.653076 
	C392.479950,439.869873 391.735321,440.332123 390.990692,440.794373 
	C386.571442,442.173309 382.152191,443.552246 377.209930,444.720703 
	C376.117065,444.842133 375.547211,445.174011 374.977356,445.505859 
	C372.242126,446.352173 369.506927,447.198486 366.230164,447.788849 
	C365.121246,447.925842 364.553864,448.318817 363.986481,448.711792 
	C361.893799,449.471893 359.801147,450.232025 357.127075,450.731934 
	C355.983459,450.876862 355.421265,451.282043 354.859070,451.687195 
	C341.167816,455.807343 327.476562,459.927460 313.251160,463.801331 
	C312.166718,463.368866 311.616425,463.182678 311.066132,462.996460 
	C309.701508,459.672546 308.336914,456.348633 306.962982,452.295044 
	C306.320068,449.368866 305.686493,447.172424 304.951935,445.069702 
	C304.850922,445.163483 304.576935,445.133514 304.683533,444.844574 
	C304.541382,444.032623 304.292694,443.509644 304.052368,442.640198 
	C303.856018,441.887115 303.651306,441.480469 303.488586,440.764740 
	C303.177856,439.734528 302.825073,439.013458 302.464020,437.956543 
	C301.597046,436.097351 300.738342,434.573914 299.749237,432.699646 
	C299.117798,431.530670 298.616730,430.712524 298.421021,429.586884 
	C298.648834,423.224182 297.677551,417.486420 292.826843,412.633911 
	C294.003448,405.081879 290.922577,399.042542 287.973541,392.981812 
	C287.562286,392.136658 286.601837,391.453308 286.459808,390.601044 
	C285.888885,387.175354 285.444092,383.720520 285.159210,380.259460 
	C285.056061,379.006592 285.531860,377.705994 285.743500,376.427185 
	C286.624176,376.179993 287.504883,375.932770 288.999756,375.516174 
	C291.340607,374.764435 293.067230,374.182098 294.793884,373.599762 
	C295.971771,373.339478 297.149689,373.079224 298.905762,372.688293 
	C299.969879,372.298096 300.455811,372.038544 300.941711,371.778992 
	C301.412842,371.723114 301.884003,371.667236 302.930725,371.485291 
	C304.170135,370.984650 304.833954,370.610138 305.497772,370.235596 
M363.418945,388.069672 
	C355.819275,385.164001 348.271759,382.107452 340.585846,379.451385 
	C338.482117,378.724426 334.999207,378.228119 333.865784,379.354034 
	C332.251495,380.957520 331.274139,384.317627 331.670837,386.647064 
	C334.039825,400.558350 336.835754,414.398285 339.583008,428.243378 
	C341.132324,436.051422 344.513214,437.428314 350.901917,432.701263 
	C362.775970,423.915680 374.559814,415.006927 386.313629,406.060577 
	C391.111206,402.408936 390.836151,399.392883 385.342499,396.974365 
	C378.362122,393.901306 371.217499,391.201385 363.418945,388.069672 
z"/>
<path fill="#0D0D0C" opacity="1.000000" stroke="none" 
	d="
M275.016083,380.961060 
	C275.389038,382.091278 275.761993,383.221466 276.276062,384.952759 
	C276.748077,386.296692 277.079010,387.039520 277.409912,387.782379 
	C277.866455,391.405212 279.814911,392.752075 283.680939,391.876068 
	C282.730133,393.943787 279.989563,396.292084 280.418945,397.598602 
	C282.382172,403.572723 285.234192,409.254761 287.440125,415.364136 
	C288.286072,420.530579 289.231720,425.452484 290.840057,430.147308 
	C291.130981,430.996490 294.141296,430.914032 295.843994,431.599579 
	C294.815186,433.287537 293.838562,434.637573 292.744019,436.223267 
	C292.689148,436.622894 292.752197,436.786896 292.673340,437.231995 
	C293.531647,440.245239 294.531860,442.977386 295.519226,445.960388 
	C295.706787,446.466949 295.907166,446.722626 296.078857,447.355347 
	C297.930298,448.850769 299.810425,449.969147 301.690552,451.087524 
	C298.378967,451.875122 297.515198,453.768158 298.671051,456.986145 
	C299.837769,460.234650 300.657043,463.607941 301.823334,467.592041 
	C293.999176,470.015381 286.330444,472.390533 277.997650,474.971405 
	C275.400787,466.231506 272.868286,458.028320 270.630066,449.745605 
	C270.368042,448.776001 271.431519,447.008789 272.384399,446.220184 
	C279.657166,440.200928 280.374878,432.487885 278.319336,424.058990 
	C276.366821,416.052460 271.001373,411.530151 263.040741,410.357117 
	C259.513794,409.837433 257.851715,408.160645 256.934845,404.949493 
	C255.258804,399.079681 253.374023,393.269440 251.391586,386.834808 
	C258.656708,384.697784 265.449127,382.699799 272.934113,380.595032 
	C274.089813,380.645844 274.552948,380.803467 275.016083,380.961060 
z"/>
<path fill="#D8D8D7" opacity="1.000000" stroke="none" 
	d="
M287.766907,415.041748 
	C285.234192,409.254761 282.382172,403.572723 280.418945,397.598602 
	C279.989563,396.292084 282.730133,393.943787 284.047363,391.674744 
	C287.462769,387.755890 285.002106,384.311432 283.935486,380.860809 
	C283.392456,379.104065 281.678101,377.134338 285.344788,376.326050 
	C285.531860,377.705994 285.056061,379.006592 285.159210,380.259460 
	C285.444092,383.720520 285.888885,387.175354 286.459808,390.601044 
	C286.601837,391.453308 287.562286,392.136658 287.973541,392.981812 
	C290.922577,399.042542 294.003448,405.081879 292.629150,412.887085 
	C290.972809,414.068298 289.369873,414.555023 287.766907,415.041748 
z"/>
<path fill="#D8D8D7" opacity="1.000000" stroke="none" 
	d="
M301.981750,451.123657 
	C299.810425,449.969147 297.930298,448.850769 296.411743,447.372070 
	C299.123322,447.322021 301.473328,447.632294 303.747803,448.252472 
	C303.787872,449.372253 303.903503,450.182068 304.019135,450.991882 
	C303.437073,451.047852 302.855011,451.103821 301.981750,451.123657 
z"/>
<path fill="#0D0D0C" opacity="1.000000" stroke="none" 
	d="
M304.346802,450.995789 
	C303.903503,450.182068 303.787872,449.372253 304.058105,448.100861 
	C304.646942,446.751526 304.849945,445.863739 305.052979,444.975952 
	C305.686493,447.172424 306.320068,449.368866 306.913269,451.949219 
	C306.140076,451.888611 305.407257,451.444153 304.346802,450.995789 
z"/>
<path fill="#D8D8D7" opacity="1.000000" stroke="none" 
	d="
M294.436157,373.445190 
	C293.067230,374.182098 291.340607,374.764435 289.273041,375.306213 
	C290.647552,374.607330 292.362976,373.948975 294.436157,373.445190 
z"/>
<path fill="#0D0D0C" opacity="1.000000" stroke="none" 
	d="
M375.253845,445.584656 
	C375.547211,445.174011 376.117065,444.842133 376.830017,444.717773 
	C376.492218,445.171356 376.011292,445.417389 375.253845,445.584656 
z"/>
<path fill="#0D0D0C" opacity="1.000000" stroke="none" 
	d="
M311.036316,463.292664 
	C311.616425,463.182678 312.166718,463.368866 312.871063,463.810852 
	C312.352234,463.907349 311.679352,463.748108 311.036316,463.292664 
z"/>
<path fill="#0D0D0C" opacity="1.000000" stroke="none" 
	d="
M364.271851,448.758026 
	C364.553864,448.318817 365.121246,447.925842 365.839539,447.753540 
	C365.512726,448.250885 365.034973,448.527557 364.271851,448.758026 
z"/>
<path fill="#0D0D0C" opacity="1.000000" stroke="none" 
	d="
M355.093750,451.767029 
	C355.421265,451.282043 355.983459,450.876862 356.758240,450.695984 
	C356.423370,451.229126 355.875885,451.537994 355.093750,451.767029 
z"/>
<path fill="#D8D8D7" opacity="1.000000" stroke="none" 
	d="
M277.568848,387.461975 
	C277.079010,387.039520 276.748077,386.296692 276.482544,385.246368 
	C276.941223,385.673126 277.334473,386.407318 277.568848,387.461975 
z"/>
<path fill="#0D0D0C" opacity="1.000000" stroke="none" 
	d="
M391.309509,440.842957 
	C391.735321,440.332123 392.479950,439.869873 393.559631,439.622437 
	C393.139252,440.188660 392.383820,440.540070 391.309509,440.842957 
z"/>
<path fill="#D8D8D7" opacity="1.000000" stroke="none" 
	d="
M305.198547,370.163208 
	C304.833954,370.610138 304.170135,370.984650 303.218933,371.268463 
	C303.587494,370.815460 304.243408,370.453125 305.198547,370.163208 
z"/>
<path fill="#D8D8D7" opacity="1.000000" stroke="none" 
	d="
M300.800842,371.580933 
	C300.455811,372.038544 299.969879,372.298096 299.209869,372.481689 
	C299.510498,372.064789 300.085205,371.723846 300.800842,371.580933 
z"/>
<path fill="#D8D8D7" opacity="1.000000" stroke="none" 
	d="
M275.026611,380.689270 
	C274.552948,380.803467 274.089813,380.645844 273.278870,380.368286 
	C273.633118,380.304749 274.335144,380.361115 275.026611,380.689270 
z"/>
<path fill="#0B0B0B" opacity="1.000000" stroke="none" 
	d="
M491.327271,411.233459 
	C497.441620,411.475372 503.134705,411.345764 508.720337,412.058289 
	C515.292542,412.896698 518.615601,416.588287 519.069275,422.333069 
	C519.647583,429.656769 517.516174,434.346344 510.941071,435.866760 
	C504.243866,437.415405 497.155548,437.334564 490.224701,437.716888 
	C489.522400,437.755646 488.094482,436.088104 488.071747,435.185455 
	C487.891266,428.027222 487.873413,420.859467 488.095917,413.703644 
	C488.122375,412.852783 489.895172,412.056244 491.327271,411.233459 
z"/>
<path fill="#0D0D0C" opacity="1.000000" stroke="none" 
	d="
M496.051178,399.909302 
	C493.286041,399.904236 490.999817,399.904236 488.037476,399.904236 
	C488.037476,395.515411 488.037445,391.602783 488.037445,387.690155 
	C488.037445,383.759338 488.037476,379.828522 488.037476,375.054108 
	C494.948761,375.408447 501.368317,375.453247 507.715302,376.154449 
	C512.646118,376.699188 515.913025,379.932648 516.696411,384.845490 
	C517.502625,389.901886 516.433289,395.095551 511.366180,397.113312 
	C506.776733,398.940826 501.502441,399.048401 496.051178,399.909302 
z"/>
<path fill="#090909" opacity="1.000000" stroke="none" 
	d="
M562.898743,436.233643 
	C555.532898,428.705841 554.048096,416.874817 559.170776,408.434875 
	C564.715393,399.299805 579.450562,398.432068 586.164795,406.845276 
	C595.468872,418.503632 590.088501,437.098328 576.438477,439.042297 
	C572.222351,439.642731 567.604126,437.419617 562.898743,436.233643 
z"/>
<path fill="#090909" opacity="1.000000" stroke="none" 
	d="
M661.171753,415.133240 
	C661.324219,418.685547 661.810181,421.903015 661.348816,424.978394 
	C659.995239,434.001068 653.714844,439.609985 645.273315,439.825684 
	C636.447632,440.051239 629.900452,434.838959 627.731812,425.860870 
	C624.675415,413.208008 631.251343,402.089996 642.439331,400.994629 
	C651.533142,400.104279 657.733765,404.676208 661.171753,415.133240 
z"/>
<path fill="#101010" opacity="1.000000" stroke="none" 
	d="
M832.753174,425.470062 
	C839.278076,424.452759 845.448059,423.611542 852.089661,422.706024 
	C852.695129,429.019318 853.081604,434.130035 847.978210,437.885101 
	C842.741577,441.738220 836.941467,442.748810 831.171509,440.084869 
	C829.134399,439.144379 827.432739,435.974304 826.934753,433.544159 
	C826.121399,429.575287 828.998718,427.210358 832.753174,425.470062 
z"/>
<path fill="#101010" opacity="1.000000" stroke="none" 
	d="
M958.000366,400.773956 
	C967.577576,401.254608 972.159424,406.067749 972.217590,415.528931 
	C962.686462,415.528931 953.156799,415.528931 943.610535,415.528931 
	C944.211060,405.651428 948.051392,401.658325 958.000366,400.773956 
z"/>
<path fill="#F6F6F6" opacity="1.000000" stroke="none" 
	d="
M363.781311,388.205139 
	C371.217499,391.201385 378.362122,393.901306 385.342499,396.974365 
	C390.836151,399.392883 391.111206,402.408936 386.313629,406.060577 
	C374.559814,415.006927 362.775970,423.915680 350.901917,432.701263 
	C344.513214,437.428314 341.132324,436.051422 339.583008,428.243378 
	C336.835754,414.398285 334.039825,400.558350 331.670837,386.647064 
	C331.274139,384.317627 332.251495,380.957520 333.865784,379.354034 
	C334.999207,378.228119 338.482117,378.724426 340.585846,379.451385 
	C348.271759,382.107452 355.819275,385.164001 363.781311,388.205139 
z"/>
<path fill="#F0F0F0" opacity="1.000000" stroke="none" 
	d="
M287.440125,415.364136 
	C289.369873,414.555023 290.972809,414.068298 292.773438,413.328430 
	C297.677551,417.486420 298.648834,423.224182 298.134094,429.588531 
	C296.993256,430.352325 296.444733,430.807007 295.896179,431.261658 
	C294.141296,430.914032 291.130981,430.996490 290.840057,430.147308 
	C289.231720,425.452484 288.286072,420.530579 287.440125,415.364136 
z"/>
<path fill="#F7F7F7" opacity="1.000000" stroke="none" 
	d="
M304.951965,445.069702 
	C304.849945,445.863739 304.646942,446.751526 304.133667,447.790924 
	C301.473328,447.632294 299.123322,447.322021 296.440430,446.995056 
	C295.907166,446.722626 295.706787,446.466949 295.649658,445.559326 
	C294.800385,442.255249 293.807800,439.603058 292.815247,436.950867 
	C292.752197,436.786896 292.689148,436.622894 293.072296,436.104279 
	C295.638885,434.849915 297.759277,433.950195 299.879639,433.050507 
	C300.738342,434.573914 301.597046,436.097351 302.324341,438.279968 
	C302.610870,439.650726 303.028717,440.362274 303.446594,441.073853 
	C303.651306,441.480469 303.856018,441.887115 303.816589,442.768524 
	C303.907257,443.873383 304.242096,444.503448 304.576935,445.133514 
	C304.576935,445.133514 304.850922,445.163483 304.951965,445.069702 
z"/>
<path fill="#D8D8D7" opacity="1.000000" stroke="none" 
	d="
M299.749237,432.699646 
	C297.759277,433.950195 295.638885,434.849915 293.190247,435.868591 
	C293.838562,434.637573 294.815186,433.287537 295.843994,431.599609 
	C296.444733,430.807007 296.993256,430.352325 297.828735,429.896027 
	C298.616730,430.712524 299.117798,431.530670 299.749237,432.699646 
z"/>
<path fill="#D8D8D7" opacity="1.000000" stroke="none" 
	d="
M304.683533,444.844574 
	C304.242096,444.503448 303.907257,443.873383 303.808228,443.114990 
	C304.292694,443.509644 304.541382,444.032623 304.683533,444.844574 
z"/>
<path fill="#D8D8D7" opacity="1.000000" stroke="none" 
	d="
M303.488586,440.764740 
	C303.028717,440.362274 302.610870,439.650726 302.332642,438.615753 
	C302.825073,439.013458 303.177856,439.734528 303.488586,440.764740 
z"/>
<path fill="#D8D8D7" opacity="1.000000" stroke="none" 
	d="
M292.673340,437.231995 
	C293.807800,439.603058 294.800385,442.255249 295.662506,445.308472 
	C294.531860,442.977386 293.531647,440.245239 292.673340,437.231995 
z"/>
</svg>